inDegrees=yes
name=ik_lifting_orientations
DataType=double
version=3
OpenSimVersion=4.5-2024-01-10-34fd6af
endheader
time	pelvis_tilt	pelvis_list	pelvis_rotation	pelvis_tx	pelvis_ty	pelvis_tz	hip_flexion_r	hip_adduction_r	hip_rotation_r	knee_angle_r	knee_angle_r_beta	ankle_angle_r	subtalar_angle_r	mtp_angle_r	hip_flexion_l	hip_adduction_l	hip_rotation_l	knee_angle_l	knee_angle_l_beta	ankle_angle_l	subtalar_angle_l	mtp_angle_l	lumbar_extension	lumbar_bending	lumbar_rotation	arm_flex_r	arm_add_r	arm_rot_r	elbow_flex_r	pro_sup_r	wrist_flex_r	wrist_dev_r	arm_flex_l	arm_add_l	arm_rot_l	elbow_flex_l	pro_sup_l	wrist_flex_l	wrist_dev_l
3.53	-0.003615544899155606	0.01087813487454514	89.99597955425358	0	0.9399999998679526	0	44.93946465882491	-10.00110435274278	0	59.8645353522828	1.044833247073878	-5.00008388235414	0	0	44.93946465882491	-10.00110435274278	0	59.8645353522828	1.044833247073878	-5.00008388235414	0	0	0.5587628142087836	5.983840525493886	-68.87178554135069	5.348859276975405	-2.926090554752081	68.99725895806449	0.4949468976550691	0.8209203757498978	0	0	0	-13.33288180140252	0	89.1935343544849	0.8209203757498978	0	0
3.54	-0.003480410260183663	0.007563068752523185	89.99329750587525	0	0.9399999998679526	0	44.93948035549022	-10.00110335452374	0	59.86456298119654	1.044833729289392	-5.000083783342584	0	0	44.93948035549022	-10.00110335452374	0	59.86456298119654	1.044833729289392	-5.000083783342584	0	0	0.623457645482705	6.186069764502947	-69.62604087106912	5.556227085400952	-2.984990854559493	69.7562107968119	0.4925439949046022	0.8207721825855925	0	0	0	-13.33310333673454	0	89.19367990617623	0.8207721825855925	0	0
3.55	0.006045529751772864	0.005060732177740356	90.00419948269156	0	0.9399999998679526	0	44.93949680733305	-10.00110230884106	0	59.86459194193055	1.044834234749554	-5.000083679645807	0	0	44.93949680733305	-10.00110230884106	0	59.86459194193055	1.044834234749554	-5.000083679645807	0	0	0.6616824250095424	6.568091441617811	-70.20466718194625	5.930047556703189	-3.086271760214415	70.33662590589705	0.4933975682860341	0.8206168467032185	0	0	0	-13.33333556388213	0	89.19383247327019	0.8206168467032185	0	0
3.56	-0.01204142396919647	0.01048054007457769	89.98357405903272	0	0.9399999998679526	0	44.9395109703287	-10.00110141082793	0	59.86461691230966	1.044834670564885	-5.000083590646412	0	0	44.9395109703287	-10.00110141082793	0	59.86461691230966	1.044834670564885	-5.000083590646412	0	0	0.6698268669061385	7.117167245469473	-70.80615245191278	6.489415623622309	-3.21882055371937	70.97528489783701	0.4939657958835458	0.8204830345324287	0	0	0	-13.33353572110522	0	89.193963900303	0.8204830345324287	0	0
3.57	-0.00923808762465585	0.002837796029189587	89.99142512072575	0	0.9399999998679526	0	44.93952547587311	-10.00110049335465	0	59.86464253140358	1.044835117702425	-5.000083499768521	0	0	44.93952547587311	-10.00110049335465	0	59.86464253140358	1.044835117702425	-5.000083499768521	0	0	0.6966741437821727	7.821421734520065	-70.93266068954146	7.15644902102158	-3.449986662967008	71.12491189288767	0.4926819212024584	0.8203458879309278	0	0	0	-13.33374099015119	0	89.19409860233246	0.8203458879309278	0	0
3.58	0.001964023313242599	-0.001477474774349951	89.99259162391807	0	0.9399999998679526	0	44.93954075551301	-10.00109952701553	0	59.86466950893476	1.044835588549168	-5.000083404064817	0	0	44.93954075551301	-10.00109952701553	0	59.86466950893476	1.044835588549168	-5.000083404064817	0	0	0.7355487926848715	8.327751701912915	-70.87717036288976	7.613647974911518	-3.656354421478243	71.08487467746134	0.4935369407944253	0.8202014329513725	0	0	0	-13.33395718088582	0	89.19424048247157	0.8202014329513725	0	0
3.59	0.002205635644752052	-0.008324332823825688	89.99317955863263	0	0.9399999998679526	0	44.9395571936856	-10.00109848535318	0	59.86469845610257	1.044836093772556	-5.000083300895126	0	0	44.9395571936856	-10.00109848535318	0	59.86469845610257	1.044836093772556	-5.000083300895126	0	0	0.8104298604051197	8.467012340174429	-70.32875828828737	7.685808029593616	-3.842078897045604	70.54161913041433	0.4938208986922548	0.8200461670518937	0	0	0	-13.33418935656004	0	89.19439298083051	0.8200461670518937	0	0
3.6	-0.009860707243007374	0.007054581918666211	89.9866034949313	0	0.9399999998679526	0	44.93956918714748	-10.00109773129312	0	59.8647197085798	1.044836464698258	-5.000083226325374	0	0	44.93956918714748	-10.00109773129312	0	59.8647197085798	1.044836464698258	-5.000083226325374	0	0	0.901996397682857	8.644612851979172	-70.43161358999767	7.832562756646042	-3.985468690597813	70.6593826860812	0.4924251305045735	0.8199326067052558	0	0	0	-13.33435952250865	0	89.19450451701962	0.8199326067052558	0	0
3.61	0.004011707802125728	0.004324061036702531	90.00785427416628	0	0.9399999998679526	0	44.93958881632143	-10.00109648618869	0	59.86475422600212	1.044837067140927	-5.000083103008389	0	0	44.93958881632143	-10.00109648618869	0	59.86475422600212	1.044837067140927	-5.000083103008389	0	0	1.004940395711346	9.045892902493902	-71.66883559135754	8.254651697773943	-4.035594396251401	71.88050102223377	0.4920324874740964	0.8197472846989453	0	0	0	-13.33463652978654	0	89.19468653574948	0.8197472846989453	0	0
3.62	-0.001155232676877761	0.01797761796546864	89.99962304690011	0	0.9399999998679526	0	44.93960543547598	-10.00109543402903	0	59.86478347635023	1.044837577655809	-5.000082998861039	0	0	44.93960543547598	-10.00109543402903	0	59.86478347635023	1.044837577655809	-5.000082998861039	0	0	1.072688888474937	9.480972688178111	-72.90224136548309	8.739304333633807	-4.061355906680709	73.12975051450547	0.493769362192499	0.8195903154113408	0	0	0	-13.33487123327109	0	89.19484070713472	0.8195903154113408	0	0
